<mxfile host="app.diagrams.net" agent="Mozilla/5.0 (Macintosh; Intel Mac OS X 10_15_7) AppleWebKit/537.36 (KHTML, like Gecko) Chrome/138.0.0.0 Safari/537.36" version="28.2.0">
  <diagram name="LLM Inference Pipeline" id="0ErKIQtHvxVru3Mt4Cs6">
    <mxGraphModel dx="1277" dy="155" grid="1" gridSize="10" guides="1" tooltips="1" connect="1" arrows="1" fold="1" page="1" pageScale="1" pageWidth="1600" pageHeight="900" math="0" shadow="0">
      <root>
        <mxCell id="0" />
        <mxCell id="1" parent="0" />
        <mxCell id="KQtqLi_Ln3r90qA4MiZL-35" value="Client/User" style="rounded=1;whiteSpace=wrap;html=1;fillColor=#d5e8d4;strokeColor=#82b366;fontStyle=1;fontSize=12;" vertex="1" parent="1">
          <mxGeometry x="1800" y="1306" width="100" height="60" as="geometry" />
        </mxCell>
        <mxCell id="KQtqLi_Ln3r90qA4MiZL-36" value="APISIX&#xa;API Gateway&#xa;(Request/Response&#xa;Capture)" style="rounded=1;whiteSpace=wrap;html=1;fillColor=#ffe6cc;strokeColor=#d79b00;fontStyle=1;fontSize=11;" vertex="1" parent="1">
          <mxGeometry x="1980" y="1326" width="120" height="100" as="geometry" />
        </mxCell>
        <mxCell id="KQtqLi_Ln3r90qA4MiZL-37" value="LLM Model 1" style="rounded=1;whiteSpace=wrap;html=1;fillColor=#f8cecc;strokeColor=#b85450;fontSize=10;" vertex="1" parent="1">
          <mxGeometry x="2130" y="1126" width="80" height="50" as="geometry" />
        </mxCell>
        <mxCell id="KQtqLi_Ln3r90qA4MiZL-38" value="LLM Model 2" style="rounded=1;whiteSpace=wrap;html=1;fillColor=#f8cecc;strokeColor=#b85450;fontSize=10;" vertex="1" parent="1">
          <mxGeometry x="2130" y="1186" width="80" height="50" as="geometry" />
        </mxCell>
        <mxCell id="KQtqLi_Ln3r90qA4MiZL-39" value="LLM Model N" style="rounded=1;whiteSpace=wrap;html=1;fillColor=#f8cecc;strokeColor=#b85450;fontSize=10;" vertex="1" parent="1">
          <mxGeometry x="2130" y="1246" width="80" height="50" as="geometry" />
        </mxCell>
        <mxCell id="KQtqLi_Ln3r90qA4MiZL-40" value="Confluent Kafka Topic&#xa;(Plain JSON Format)" style="rounded=1;whiteSpace=wrap;html=1;fillColor=#dae8fc;strokeColor=#6c8ebf;fontStyle=1;fontSize=11;" vertex="1" parent="1">
          <mxGeometry x="2230" y="1336" width="140" height="80" as="geometry" />
        </mxCell>
        <mxCell id="KQtqLi_Ln3r90qA4MiZL-41" value="Schema&#xa;Validation" style="rhombus;whiteSpace=wrap;html=1;fillColor=#fff2cc;strokeColor=#d6b656;fontSize=10;" vertex="1" parent="1">
          <mxGeometry x="2430" y="1266" width="80" height="60" as="geometry" />
        </mxCell>
        <mxCell id="KQtqLi_Ln3r90qA4MiZL-42" value="SDP Hive Table&#xa;(Valid Records)" style="rounded=1;whiteSpace=wrap;html=1;fillColor=#e1d5e7;strokeColor=#9673a6;fontSize=10;" vertex="1" parent="1">
          <mxGeometry x="2570" y="1226" width="100" height="60" as="geometry" />
        </mxCell>
        <mxCell id="KQtqLi_Ln3r90qA4MiZL-43" value="Error Hive Table&#xa;(Invalid Records)" style="rounded=1;whiteSpace=wrap;html=1;fillColor=#ffcccc;strokeColor=#cc0000;fontSize=10;" vertex="1" parent="1">
          <mxGeometry x="2570" y="1306" width="100" height="60" as="geometry" />
        </mxCell>
        <mxCell id="KQtqLi_Ln3r90qA4MiZL-44" value="Schema&#xa;Validation" style="rhombus;whiteSpace=wrap;html=1;fillColor=#fff2cc;strokeColor=#d6b656;fontSize=10;" vertex="1" parent="1">
          <mxGeometry x="2430" y="1426" width="80" height="60" as="geometry" />
        </mxCell>
        <mxCell id="KQtqLi_Ln3r90qA4MiZL-45" value="Elasticsearch&#xa;(Valid Records)" style="rounded=1;whiteSpace=wrap;html=1;fillColor=#d0cee2;strokeColor=#56517e;fontSize=10;" vertex="1" parent="1">
          <mxGeometry x="2570" y="1386" width="100" height="60" as="geometry" />
        </mxCell>
        <mxCell id="KQtqLi_Ln3r90qA4MiZL-46" value="Error Hive Table (Invalid Records)" style="rounded=1;whiteSpace=wrap;html=1;fillColor=#ffcccc;strokeColor=#cc0000;fontSize=10;" vertex="1" parent="1">
          <mxGeometry x="2570" y="1466" width="100" height="60" as="geometry" />
        </mxCell>
        <mxCell id="KQtqLi_Ln3r90qA4MiZL-47" value="Kibana Dashboard&#xa;(Near Real-time)" style="rounded=1;whiteSpace=wrap;html=1;fillColor=#b1ddf0;strokeColor=#10739e;fontStyle=1;fontSize=11;" vertex="1" parent="1">
          <mxGeometry x="2770" y="1386" width="120" height="60" as="geometry" />
        </mxCell>
        <mxCell id="KQtqLi_Ln3r90qA4MiZL-48" value="End of Day&#xa;Data Count&#xa;Reconciliation Job" style="rounded=1;whiteSpace=wrap;html=1;fillColor=#fad7ac;strokeColor=#b46504;fontStyle=1;fontSize=10;" vertex="1" parent="1">
          <mxGeometry x="2400" y="1583.5" width="120" height="40" as="geometry" />
        </mxCell>
        <mxCell id="KQtqLi_Ln3r90qA4MiZL-49" value="API Requests" style="edgeStyle=orthogonalEdgeStyle;rounded=0;orthogonalLoop=1;jettySize=auto;html=1;fontSize=9;" edge="1" parent="1" source="KQtqLi_Ln3r90qA4MiZL-35" target="KQtqLi_Ln3r90qA4MiZL-36">
          <mxGeometry relative="1" as="geometry" />
        </mxCell>
        <mxCell id="KQtqLi_Ln3r90qA4MiZL-53" value="Response" style="edgeStyle=orthogonalEdgeStyle;rounded=0;orthogonalLoop=1;jettySize=auto;html=1;fontSize=9;" edge="1" parent="1" source="KQtqLi_Ln3r90qA4MiZL-37" target="KQtqLi_Ln3r90qA4MiZL-36">
          <mxGeometry x="0.7736" relative="1" as="geometry">
            <mxPoint as="offset" />
          </mxGeometry>
        </mxCell>
        <mxCell id="KQtqLi_Ln3r90qA4MiZL-54" value="" style="edgeStyle=orthogonalEdgeStyle;rounded=0;orthogonalLoop=1;jettySize=auto;html=1;" edge="1" parent="1" source="KQtqLi_Ln3r90qA4MiZL-38" target="KQtqLi_Ln3r90qA4MiZL-36">
          <mxGeometry relative="1" as="geometry" />
        </mxCell>
        <mxCell id="KQtqLi_Ln3r90qA4MiZL-55" value="" style="edgeStyle=orthogonalEdgeStyle;rounded=0;orthogonalLoop=1;jettySize=auto;html=1;" edge="1" parent="1" source="KQtqLi_Ln3r90qA4MiZL-39" target="KQtqLi_Ln3r90qA4MiZL-36">
          <mxGeometry relative="1" as="geometry">
            <Array as="points">
              <mxPoint x="2040" y="1271" />
            </Array>
          </mxGeometry>
        </mxCell>
        <mxCell id="KQtqLi_Ln3r90qA4MiZL-56" value="Capture Request/Response&#xa;Send to Kafka (JSON)" style="edgeStyle=orthogonalEdgeStyle;rounded=0;orthogonalLoop=1;jettySize=auto;html=1;fontSize=9;fontStyle=1;" edge="1" parent="1" source="KQtqLi_Ln3r90qA4MiZL-36" target="KQtqLi_Ln3r90qA4MiZL-40">
          <mxGeometry relative="1" as="geometry" />
        </mxCell>
        <mxCell id="KQtqLi_Ln3r90qA4MiZL-57" value="Sync Job" style="edgeStyle=orthogonalEdgeStyle;rounded=0;orthogonalLoop=1;jettySize=auto;html=1;fontSize=9;" edge="1" parent="1" source="KQtqLi_Ln3r90qA4MiZL-40" target="KQtqLi_Ln3r90qA4MiZL-41">
          <mxGeometry relative="1" as="geometry">
            <mxPoint x="2330" y="1296" as="targetPoint" />
            <Array as="points">
              <mxPoint x="2300" y="1296" />
            </Array>
          </mxGeometry>
        </mxCell>
        <mxCell id="KQtqLi_Ln3r90qA4MiZL-58" value="Valid" style="edgeStyle=orthogonalEdgeStyle;rounded=0;orthogonalLoop=1;jettySize=auto;html=1;fontSize=9;fontColor=#008000;" edge="1" parent="1" source="KQtqLi_Ln3r90qA4MiZL-41" target="KQtqLi_Ln3r90qA4MiZL-42">
          <mxGeometry relative="1" as="geometry" />
        </mxCell>
        <mxCell id="KQtqLi_Ln3r90qA4MiZL-59" value="Invalid" style="edgeStyle=orthogonalEdgeStyle;rounded=0;orthogonalLoop=1;jettySize=auto;html=1;fontSize=9;fontColor=#cc0000;" edge="1" parent="1" source="KQtqLi_Ln3r90qA4MiZL-41" target="KQtqLi_Ln3r90qA4MiZL-43">
          <mxGeometry relative="1" as="geometry" />
        </mxCell>
        <mxCell id="KQtqLi_Ln3r90qA4MiZL-60" value="Sync Job" style="edgeStyle=orthogonalEdgeStyle;rounded=0;orthogonalLoop=1;jettySize=auto;html=1;fontSize=9;" edge="1" parent="1" source="KQtqLi_Ln3r90qA4MiZL-40" target="KQtqLi_Ln3r90qA4MiZL-44">
          <mxGeometry relative="1" as="geometry">
            <mxPoint x="2330" y="1456" as="targetPoint" />
          </mxGeometry>
        </mxCell>
        <mxCell id="KQtqLi_Ln3r90qA4MiZL-61" value="Valid" style="edgeStyle=orthogonalEdgeStyle;rounded=0;orthogonalLoop=1;jettySize=auto;html=1;fontSize=9;fontColor=#008000;" edge="1" parent="1" source="KQtqLi_Ln3r90qA4MiZL-44" target="KQtqLi_Ln3r90qA4MiZL-45">
          <mxGeometry relative="1" as="geometry" />
        </mxCell>
        <mxCell id="KQtqLi_Ln3r90qA4MiZL-62" value="Invalid" style="edgeStyle=orthogonalEdgeStyle;rounded=0;orthogonalLoop=1;jettySize=auto;html=1;fontSize=9;fontColor=#cc0000;" edge="1" parent="1" source="KQtqLi_Ln3r90qA4MiZL-44" target="KQtqLi_Ln3r90qA4MiZL-46">
          <mxGeometry relative="1" as="geometry" />
        </mxCell>
        <mxCell id="KQtqLi_Ln3r90qA4MiZL-63" value="Real-time Indexing" style="edgeStyle=orthogonalEdgeStyle;rounded=0;orthogonalLoop=1;jettySize=auto;html=1;fontSize=9;" edge="1" parent="1" source="KQtqLi_Ln3r90qA4MiZL-45" target="KQtqLi_Ln3r90qA4MiZL-47">
          <mxGeometry y="10" relative="1" as="geometry">
            <mxPoint as="offset" />
          </mxGeometry>
        </mxCell>
        <mxCell id="KQtqLi_Ln3r90qA4MiZL-64" value="Count Check" style="edgeStyle=orthogonalEdgeStyle;rounded=0;orthogonalLoop=1;jettySize=auto;html=1;fontSize=9;dashed=1;dashPattern=5 5;" edge="1" parent="1" source="KQtqLi_Ln3r90qA4MiZL-48" target="KQtqLi_Ln3r90qA4MiZL-40">
          <mxGeometry relative="1" as="geometry">
            <Array as="points">
              <mxPoint x="2300" y="1576" />
              <mxPoint x="2300" y="1416" />
            </Array>
          </mxGeometry>
        </mxCell>
        <mxCell id="KQtqLi_Ln3r90qA4MiZL-65" value="Count Check" style="edgeStyle=orthogonalEdgeStyle;rounded=0;orthogonalLoop=1;jettySize=auto;html=1;fontSize=9;dashed=1;dashPattern=5 5;" edge="1" parent="1" source="KQtqLi_Ln3r90qA4MiZL-48" target="KQtqLi_Ln3r90qA4MiZL-42">
          <mxGeometry x="0.6066" relative="1" as="geometry">
            <Array as="points">
              <mxPoint x="2620" y="1576" />
              <mxPoint x="2620" y="1286" />
            </Array>
            <mxPoint as="offset" />
          </mxGeometry>
        </mxCell>
        <mxCell id="KQtqLi_Ln3r90qA4MiZL-66" value="Count Check" style="edgeStyle=orthogonalEdgeStyle;rounded=0;orthogonalLoop=1;jettySize=auto;html=1;fontSize=9;dashed=1;dashPattern=5 5;" edge="1" parent="1" source="KQtqLi_Ln3r90qA4MiZL-48" target="KQtqLi_Ln3r90qA4MiZL-45">
          <mxGeometry relative="1" as="geometry">
            <Array as="points">
              <mxPoint x="2620" y="1576" />
              <mxPoint x="2620" y="1416" />
            </Array>
          </mxGeometry>
        </mxCell>
        <mxCell id="KQtqLi_Ln3r90qA4MiZL-67" value="LLM Inference Data Pipeline Architecture" style="text;html=1;strokeColor=none;fillColor=none;align=center;verticalAlign=middle;whiteSpace=wrap;rounded=0;fontSize=16;fontStyle=1;" vertex="1" parent="1">
          <mxGeometry x="2270" y="1020" width="300" height="30" as="geometry" />
        </mxCell>
        <mxCell id="KQtqLi_Ln3r90qA4MiZL-68" value="" style="rounded=1;whiteSpace=wrap;html=1;fillColor=#f5f5f5;strokeColor=#666666;opacity=50;" vertex="1" parent="1">
          <mxGeometry x="1990" y="1496" width="190" height="87.5" as="geometry" />
        </mxCell>
        <mxCell id="KQtqLi_Ln3r90qA4MiZL-69" value="Legend:" style="text;html=1;strokeColor=none;fillColor=none;align=left;verticalAlign=middle;whiteSpace=wrap;rounded=0;fontSize=12;fontStyle=1;" vertex="1" parent="1">
          <mxGeometry x="2010" y="1503.5" width="60" height="20" as="geometry" />
        </mxCell>
        <mxCell id="KQtqLi_Ln3r90qA4MiZL-70" value="Data Flow" style="text;html=1;strokeColor=none;fillColor=none;align=left;verticalAlign=middle;whiteSpace=wrap;rounded=0;fontSize=10;" vertex="1" parent="1">
          <mxGeometry x="2070" y="1523.5" width="80" height="15" as="geometry" />
        </mxCell>
        <mxCell id="KQtqLi_Ln3r90qA4MiZL-71" value="Reconciliation Check" style="text;html=1;strokeColor=none;fillColor=none;align=left;verticalAlign=middle;whiteSpace=wrap;rounded=0;fontSize=10;" vertex="1" parent="1">
          <mxGeometry x="2070" y="1548.5" width="120" height="15" as="geometry" />
        </mxCell>
        <mxCell id="KQtqLi_Ln3r90qA4MiZL-74" value="" style="endArrow=classic;html=1;strokeWidth=1;entryX=0;entryY=0.75;entryDx=0;entryDy=0;" edge="1" parent="1" target="KQtqLi_Ln3r90qA4MiZL-70">
          <mxGeometry width="50" height="50" relative="1" as="geometry">
            <mxPoint x="2010" y="1535.5" as="sourcePoint" />
            <mxPoint x="2025" y="1535.5" as="targetPoint" />
          </mxGeometry>
        </mxCell>
        <mxCell id="KQtqLi_Ln3r90qA4MiZL-75" value="" style="endArrow=classic;html=1;strokeWidth=1;dashed=1;dashPattern=5 5;entryX=0;entryY=0.5;entryDx=0;entryDy=0;" edge="1" parent="1" target="KQtqLi_Ln3r90qA4MiZL-71">
          <mxGeometry width="50" height="50" relative="1" as="geometry">
            <mxPoint x="2010" y="1555.5" as="sourcePoint" />
            <mxPoint x="2025" y="1555.5" as="targetPoint" />
          </mxGeometry>
        </mxCell>
      </root>
    </mxGraphModel>
  </diagram>
</mxfile>
